<?xml version="1.0" encoding="UTF-8" standalone="no"?>
<!-- Created with Inkscape (http://www.inkscape.org/) -->

<svg
   xmlns:dc="http://purl.org/dc/elements/1.1/"
   xmlns:cc="http://creativecommons.org/ns#"
   xmlns:rdf="http://www.w3.org/1999/02/22-rdf-syntax-ns#"
   xmlns:svg="http://www.w3.org/2000/svg"
   xmlns="http://www.w3.org/2000/svg"
   xmlns:sodipodi="http://sodipodi.sourceforge.net/DTD/sodipodi-0.dtd"
   xmlns:inkscape="http://www.inkscape.org/namespaces/inkscape"
   width="1300"
   height="900"
   id="svg5801"
   version="1.1"
   inkscape:version="0.48.2 r9819"
   sodipodi:docname="WanderingWarlockHatLogoCardEditionWhite.svg"
   inkscape:export-filename="/Users/mhhoban/SpiderOak Hive/Graphic Design Tomfoolery/WanderingWarlockHatLogoCardEdition2.png"
   inkscape:export-xdpi="90"
   inkscape:export-ydpi="90">
  <defs
     id="defs5803">
    <inkscape:path-effect
       effect="skeletal"
       id="path-effect3040-3"
       is_visible="true"
       pattern="M 0,5 C 0,2.24 2.24,0 5,0 7.76,0 10,2.24 10,5 10,7.76 7.76,10 5,10 2.24,10 0,7.76 0,5 z"
       copytype="single_stretched"
       prop_scale="1"
       scale_y_rel="false"
       spacing="0"
       normal_offset="0"
       tang_offset="0"
       prop_units="false"
       vertical_pattern="false"
       fuse_tolerance="0" />
    <inkscape:path-effect
       effect="skeletal"
       id="path-effect3155-6"
       is_visible="true"
       pattern="m 166.42857,23.571428 c 0,-2.76 2.24,-5 5,-5 2.76,0 5,2.24 5,5 0,2.76 -2.24,5 -5,5 -2.76,0 -5,-2.24 -5,-5 z"
       copytype="single_stretched"
       prop_scale="1"
       scale_y_rel="false"
       spacing="0"
       normal_offset="0"
       tang_offset="0"
       prop_units="false"
       vertical_pattern="false"
       fuse_tolerance="0" />
    <inkscape:path-effect
       effect="skeletal"
       id="path-effect3159-8"
       is_visible="true"
       pattern="m -0.71428572,40 c 0,-2.76 2.24000002,-5 5.00000002,-5 2.76,0 5,2.24 5,5 0,2.76 -2.24,5 -5,5 -2.76,0 -5.00000002,-2.24 -5.00000002,-5 z"
       copytype="single_stretched"
       prop_scale="1"
       scale_y_rel="false"
       spacing="0"
       normal_offset="0"
       tang_offset="0"
       prop_units="false"
       vertical_pattern="false"
       fuse_tolerance="0" />
    <inkscape:path-effect
       effect="skeletal"
       id="path-effect3168-5"
       is_visible="true"
       pattern="M 0,5 C 0,2.24 2.24,0 5,0 7.76,0 10,2.24 10,5 10,7.76 7.76,10 5,10 2.24,10 0,7.76 0,5 z"
       copytype="single_stretched"
       prop_scale="1"
       scale_y_rel="false"
       spacing="0"
       normal_offset="0"
       tang_offset="0"
       prop_units="false"
       vertical_pattern="false"
       fuse_tolerance="0" />
    <inkscape:path-effect
       effect="skeletal"
       id="path-effect3040"
       is_visible="true"
       pattern="M 0,5 C 0,2.24 2.24,0 5,0 7.76,0 10,2.24 10,5 10,7.76 7.76,10 5,10 2.24,10 0,7.76 0,5 z"
       copytype="single_stretched"
       prop_scale="1"
       scale_y_rel="false"
       spacing="0"
       normal_offset="0"
       tang_offset="0"
       prop_units="false"
       vertical_pattern="false"
       fuse_tolerance="0" />
    <inkscape:path-effect
       effect="skeletal"
       id="path-effect3155"
       is_visible="true"
       pattern="m 166.42857,23.571428 c 0,-2.76 2.24,-5 5,-5 2.76,0 5,2.24 5,5 0,2.76 -2.24,5 -5,5 -2.76,0 -5,-2.24 -5,-5 z"
       copytype="single_stretched"
       prop_scale="1"
       scale_y_rel="false"
       spacing="0"
       normal_offset="0"
       tang_offset="0"
       prop_units="false"
       vertical_pattern="false"
       fuse_tolerance="0" />
    <inkscape:path-effect
       effect="skeletal"
       id="path-effect3159"
       is_visible="true"
       pattern="m -0.71428572,40 c 0,-2.76 2.24000002,-5 5.00000002,-5 2.76,0 5,2.24 5,5 0,2.76 -2.24,5 -5,5 -2.76,0 -5.00000002,-2.24 -5.00000002,-5 z"
       copytype="single_stretched"
       prop_scale="1"
       scale_y_rel="false"
       spacing="0"
       normal_offset="0"
       tang_offset="0"
       prop_units="false"
       vertical_pattern="false"
       fuse_tolerance="0" />
    <inkscape:path-effect
       effect="skeletal"
       id="path-effect3168"
       is_visible="true"
       pattern="M 0,5 C 0,2.24 2.24,0 5,0 7.76,0 10,2.24 10,5 10,7.76 7.76,10 5,10 2.24,10 0,7.76 0,5 z"
       copytype="single_stretched"
       prop_scale="1"
       scale_y_rel="false"
       spacing="0"
       normal_offset="0"
       tang_offset="0"
       prop_units="false"
       vertical_pattern="false"
       fuse_tolerance="0" />
  </defs>
  <sodipodi:namedview
     id="base"
     pagecolor="#ffffff"
     bordercolor="#666666"
     borderopacity="1.0"
     inkscape:pageopacity="0.0"
     inkscape:pageshadow="2"
     inkscape:zoom="0.49497475"
     inkscape:cx="621.09462"
     inkscape:cy="497.50311"
     inkscape:document-units="px"
     inkscape:current-layer="layer1"
     showgrid="false"
     inkscape:window-width="901"
     inkscape:window-height="711"
     inkscape:window-x="44"
     inkscape:window-y="0"
     inkscape:window-maximized="0" />
  <metadata
     id="metadata5806">
    <rdf:RDF>
      <cc:Work
         rdf:about="">
        <dc:format>image/svg+xml</dc:format>
        <dc:type
           rdf:resource="http://purl.org/dc/dcmitype/StillImage" />
        <dc:title></dc:title>
      </cc:Work>
    </rdf:RDF>
  </metadata>
  <g
     inkscape:label="Base"
     inkscape:groupmode="layer"
     id="layer1"
     transform="translate(0,-152.36218)">
    <g
       transform="matrix(1.6771934,0,0,1.9776518,268.99793,-936.65695)"
       id="g3170"
       inkscape:export-filename="/Users/mhhoban/SpiderOak Hive/Graphic Design Tomfoolery/WanderingWarlockHatLogoCardEdition2.png"
       inkscape:export-xdpi="90"
       inkscape:export-ydpi="90">
      <g
         id="g3161">
        <path
           style="fill:#000000;fill-rule:evenodd;stroke:none"
           d="m 422.24374,736.18441 c -0.62921,0.28314 -1.33514,0.29849 -1.95242,0.0297 -0.61729,-0.26884 -1.14489,-0.82232 -1.51056,-1.63493 -0.36567,-0.8126 -0.56943,-1.88432 -0.64005,-3.14417 -0.0706,-1.25985 -0.009,-2.70735 0.0624,-4.22961 2e-5,1e-5 3e-5,2e-5 5e-5,4e-5 1.18681,0.95596 2.31093,1.86995 3.20701,2.75834 0.89608,0.88839 1.56307,1.75166 1.92875,2.56426 0.36567,0.81261 0.43002,1.57455 0.22184,2.21484 -0.20817,0.6403 -0.68782,1.15846 -1.31704,1.44161 -0.62922,0.28315 -1.33514,0.29849 -1.95242,0.0297 -0.61729,-0.26883 -1.14488,-0.82232 -1.51055,-1.63492 -0.36567,-0.81261 -0.56943,-1.88433 -0.64005,-3.14418 -0.0706,-1.25984 -0.009,-2.70734 0.0624,-4.22959 0,-3e-5 0,-5e-5 0,-7e-5 1.18682,0.95597 2.31095,1.86996 3.20703,2.75835 0.89608,0.8884 1.56307,1.75166 1.92874,2.56427 0.36567,0.8126 0.43002,1.57455 0.22184,2.21484 -0.20817,0.6403 -0.68783,1.15847 -1.31705,1.44162 z"
           id="path3038"
           inkscape:path-effect="#path-effect3040"
           inkscape:original-d="m 422.24376,736.18444 c 0,0 -9.09137,-20.20305 0,0 z"
           inkscape:connector-curvature="0" />
        <path
           style="fill:#000000;fill-rule:evenodd;stroke:none"
           d="m 224.28572,776.64789 c -0.0247,-1.20928 13.05811,-2.58237 34.59595,-3.85424 5.25943,-1.49677 11.03008,-3.10323 17.24271,-4.80018 5.08907,-1.73472 10.49997,-3.55345 16.19597,-5.44403 4.85808,0.11631 9.91,0.24848 15.13437,0.39643 2.11936,-0.55935 4.26592,-1.12418 6.43845,-1.69407 2.04282,-0.35323 4.34609,-0.55109 6.87227,-0.32652 2.07502,0.003 4.67917,0.97474 7.14405,3.41708 -0.37891,-0.27258 -0.28598,-0.36068 0.0758,-0.12051 0.49193,0.19706 1.19308,0.30966 2.05907,0.44285 2.07425,0.29061 4.36374,0.26434 6.83233,0.17393 2.18318,-0.092 4.40365,-0.28172 6.65811,-0.53929 0,0 0,0 0,0 0.71264,-0.0818 1.42188,-0.16991 2.12713,-0.26659 0,0 0,0 0,0 0.19588,-0.0268 0.38829,-0.0539 0.57714,-0.0816 0,0 10e-6,0 10e-6,0 0.0509,-0.007 0.0998,-0.0147 0.14688,-0.0218 0,0 0,0 0,0 0.0151,-0.002 0.0302,-0.004 0.0453,-0.006 0.005,-7.7e-4 0.0109,-0.002 0.0164,-0.002 5.20699,-0.72109 10.50778,-1.44579 15.88511,-2.17212 4.14422,0.87548 8.33457,1.76564 12.56276,2.66925 1.74044,0.37195 3.47415,0.74338 5.20057,1.11416 4.32501,1.06721 8.66199,2.21927 12.93488,3.62358 0,0 0,0 0,0 0,0 0,0 10e-6,1e-5 0,0 0,0 0,0 1.7105,0.55944 3.48844,1.1937 5.28783,1.98658 0,0 0,0 0,0 0,0 10e-6,0 10e-6,0 0,0 0,0 0,0 1.0833,0.39558 2.59611,1.16571 4.27921,2.57648 4.23825,3.90196 8.63553,7.56498 12.98925,11.15934 0,0 0,0 0,0 1.74116,1.43666 3.47253,2.85083 5.1924,4.24229 0,0 0,0 0,0 0,0 10e-6,0 10e-6,0 0,0 0,0 0,0 0.51472,0.41643 1.02744,0.83007 1.53847,1.24052 0,0 0,0 0,0 0,10e-6 10e-6,10e-6 10e-6,10e-6 0,0 0,0 0,0 0.13872,0.11142 0.27681,0.22222 0.41432,0.33232 10e-6,0 10e-6,1e-5 2e-5,1e-5 0.10679,0.0942 0.21325,0.18805 0.31936,0.28163 0,0 0,0 0,0 0.0131,0.0105 0.0265,0.0212 0.0396,0.0317 9.27181,9.49574 17.88105,18.40981 25.62222,26.52373 0,0 0,0 0,0 2.99233,3.89383 5.82273,7.49935 8.71215,10.63728 1.59079,1.69177 2.99763,3.17183 4.47973,4.14186 0.68853,0.50032 1.58704,0.87343 2.57798,1.21838 0,0 0,0 0,0 1.33798,0.42758 2.76179,0.98219 4.15906,1.77288 0,0 0,0 0,10e-6 4.18846,2.46914 8.34986,4.11405 12.09474,5.03455 3.74488,0.9205 7.08238,1.13041 9.85824,1.00742 0,0 0,0 0,0 2.85151,-0.11774 5.07637,-0.53526 6.6399,-0.85003 0,0 0,0 0,0 0.82433,-0.16603 1.46026,-0.3007 1.91846,-0.3635 0,0 0,0 0,0 0.23597,-0.0323 0.4226,-0.0444 0.56283,-0.0323 0,0 0,0 0,0 0,0 0,0 0,0 0.0703,0.007 0.12872,0.0195 0.17559,0.039 0,0 0,0 0,0 0,0 0,0 0,0 0.089,0.0878 0.10623,0.0842 0.10759,0.0837 0,0 0,0 0,0 0,0 0,0 0,0 6e-5,-3e-5 5e-5,-2e-5 5e-5,-2e-5 0,0 10e-6,-1e-5 -4e-5,4e-5 0,0 0,0 0,0 0,0 0,0 0,0 -0.001,9.8e-4 -0.012,0.0147 0.0241,0.13387 0,0 0,0 0,0 0,0 0,0 0,0 -0.007,0.0511 -0.0274,0.11019 -0.0625,0.17644 0,0 0,10e-6 0,10e-6 0,0 0,0 0,0 -0.0673,0.12936 -0.1895,0.2865 -0.36603,0.46466 0,0 0,0 0,0 -0.34286,0.34599 -0.89925,0.77754 -1.67323,1.24128 0,0 0,0 0,0 -1.46931,0.88024 -3.75993,1.90712 -6.86403,2.58228 0,0 0,0 0,0 -3.04135,0.65148 -6.84391,0.94461 -11.19978,0.41004 -4.35587,-0.53457 -9.27316,-1.91162 -14.21539,-4.37561 0,0 -1e-5,0 -1e-5,0 -0.80628,-0.39983 -1.82136,-0.67676 -2.99976,-0.97891 0,0 0,0 0,0 -1.3746,-0.34104 -2.84641,-0.86427 -4.34031,-1.70609 -2.35075,-1.38708 -4.35197,-3.13962 -6.11428,-4.87305 -3.26862,-3.15254 -6.38035,-6.70097 -9.47384,-10.38581 0,0 0,0 0,0 -7.93278,-7.56003 -16.60014,-15.92257 -25.80635,-24.90484 -0.0131,-0.01 -0.0264,-0.02 -0.0394,-0.0298 0,0 0,0 0,0 0.0319,0.0358 0.0642,0.0718 0.0968,0.10809 0,0 0,0 0,10e-6 -0.14574,-0.11096 -0.29091,-0.22175 -0.43555,-0.33229 0,0 0,0 0,0 -1e-5,0 -1e-5,-1e-5 -1e-5,-1e-5 0,0 0,0 0,0 -0.53287,-0.40724 -1.06546,-0.81651 -1.59798,-1.22737 0,0 0,0 0,0 -10e-6,0 -10e-6,0 -10e-6,0 0,0 0,0 0,0 -1.77935,-1.37279 -3.56893,-2.77176 -5.36692,-4.19671 0,0 0,0 0,0 -4.46627,-3.53711 -9.05877,-7.24759 -13.59211,-11.31979 0.005,-0.11508 -0.6135,-0.28833 -1.62319,-0.81023 0,0 -10e-6,-10e-6 -10e-6,-10e-6 0,0 0,0 0,0 -1.3369,-0.58195 -2.81423,-1.08513 -4.39432,-1.59731 0,0 0,0 0,0 0,0 -10e-6,0 -10e-6,0 0,0 0,0 0,0 -3.8794,-1.2506 -7.94706,-2.30514 -12.14254,-3.33677 -1.54233,-0.3581 -3.09061,-0.71852 -4.64459,-1.08118 -3.77522,-0.88103 -7.51496,-1.75917 -11.21575,-2.63302 -4.77139,0.72349 -9.47887,1.42854 -14.11496,2.1136 -0.005,7.5e-4 -0.01,0.001 -0.0146,0.002 -0.0135,0.002 -0.0269,0.004 -0.0404,0.006 0,0 0,0 0,0 -0.0627,0.009 -0.12342,0.017 -0.18226,0.0248 0,0 0,0 0,0 -0.22605,0.0303 -0.44856,0.0589 -0.66751,0.0861 0,0 0,0 0,0 -0.78867,0.0982 -1.57195,0.18548 -2.34942,0.26413 0,0 0,0 0,0 -2.45183,0.24906 -4.91466,0.42058 -7.38039,0.48531 -2.71386,0.0843 -5.58256,0.0297 -8.53196,-0.40906 -1.22927,-0.17102 -2.60763,-0.48399 -4.07472,-1.03593 -1.14481,-0.33585 -2.53105,-1.20011 -3.93482,-2.70251 0.50487,0.0903 -0.0704,0.1539 -0.99065,-0.19751 -1.14457,-0.2092 -2.52892,-0.10042 -4.07312,0.0698 -2.48279,0.51757 -4.92975,1.02575 -7.33852,1.52416 -5.12218,-0.34474 -10.08399,-0.68941 -14.8657,-1.03213 -5.31398,1.61258 -10.40176,3.13433 -15.23262,4.55594 -6.70085,1.40229 -12.88259,2.66441 -18.47157,3.77126 -22.1809,-0.37965 -35.37935,-1.21638 -35.40403,-2.42566 z"
           id="path3153"
           inkscape:path-effect="#path-effect3155"
           inkscape:original-d="m 224.28572,776.64789 34.99999,-0.71429 17.85714,-4.28572 15.7143,-4.99999 15,0.71429 c 0,0 12.85713,-4.28572 16.42856,0 3.57143,4.28571 22.85715,1.42857 22.85715,1.42857 l 15,-2.14286 c 0,0 32.41554,6.41674 37.14285,10.71429 7.85715,7.14285 20.71429,17.14285 20.71429,17.14285 0,0 11.09004,7.50274 25.71428,25.71428 15.52495,19.33318 15.70555,14.76511 21.42857,17.85714 C 486.53967,848.55616 500,840.21932 500,840.21932"
           inkscape:connector-curvature="0"
           sodipodi:nodetypes="cccccsccscssc" />
        <path
           style="fill:#000000;fill-rule:evenodd;stroke:none"
           d="m 493.57143,841.64789 c -0.0144,-0.4605 6.2213,-1.09157 17.94973,-1.54784 11.72844,-0.45627 28.94983,-0.73628 50.88782,-0.63192 -9.78406,3.22343 -20.52629,6.92633 -32.14491,11.10376 -8.07225,2.07811 -16.58827,4.23283 -25.55046,6.35855 -3.49335,0.82865 -7.06377,1.65588 -10.72025,2.44037 -2.4936,0.53674 -5.07739,1.08063 -7.77861,1.49469 -7.63949,1.16712 -15.5381,2.04153 -23.63371,2.82927 0,0 0,0 0,0 -2.90186,0.28271 -5.83543,0.55143 -8.80011,0.80438 0,0 0,0 0,0 -0.85375,0.0728 -1.71112,0.14445 -2.5722,0.21408 0,0 0,0 0,0 -0.23061,0.0187 -0.46205,0.0372 -0.69434,0.0555 -2e-5,-10e-6 -2e-5,-10e-6 -3e-5,-10e-6 -0.24787,-0.01 -0.4962,-0.0194 -0.74499,-0.029 0,0 0,0 0,0 -0.0155,0.001 -0.0311,0.002 -0.0467,0.004 -0.006,4.3e-4 -0.0112,8.6e-4 -0.0167,0.001 -5.1983,-1.12637 -10.48686,-2.27374 -15.86246,-3.44143 -7.66406,0.0634 -15.49864,0.12501 -23.49471,0.18479 -6.93941,-1.24127 -14.00824,-2.50953 -21.20033,-3.80359 -11.75217,-9.22873 -23.85363,-18.84474 -36.27085,-28.8033 4.93486,8.32905 9.96549,16.80039 15.08403,25.40383 -6.39227,1.55509 -12.85309,3.13804 -19.37871,4.74666 -2.81685,-1.1779 -5.64605,-2.36142 -8.48731,-3.55043 -1e-5,0 -2e-5,-10e-6 -3e-5,-10e-6 -3.5597,0.54309 -7.13642,1.08904 -10.72975,1.63771 -10.50668,-0.90569 -21.16094,-1.82745 -31.94957,-2.76431 -5.3905,-0.49935 -10.81465,-1.00287 -16.27072,-1.51039 -5.56239,-1.87918 -11.15933,-3.7715 -16.78912,-5.67634 -3.71809,0.23218 -7.4495,0.46474 -11.19412,0.69764 -1e-5,0 -3e-5,0 -4e-5,0 -4.92976,1.89868 -9.884,3.80592 -14.8615,5.72125 -4.2585,0.50019 -8.53264,1.00178 -12.82164,1.50466 -7.6415,0.70159 -15.522,1.22035 -23.58585,0.83346 -5.40825,-0.26888 -10.82449,-0.59501 -16.2488,-0.94532 -3.79103,-0.24483 -7.56643,-0.50011 -11.32644,-0.75412 -5.68047,-0.39589 -11.33776,-0.79111 -16.97031,-1.18553 -0.014,-0.002 -0.028,-0.004 -0.0419,-0.005 -0.0402,-0.005 -0.0804,-0.0103 -0.12066,-0.0155 -0.15708,-0.0201 -0.3146,-0.0402 -0.47255,-0.0602 -0.44936,-0.0608 -0.90018,-0.12083 -1.35241,-0.18048 -1.68562,-0.22232 -3.37248,-0.43689 -5.06015,-0.64631 -5.80015,-0.71969 -11.58082,-1.37462 -17.33869,-1.96742 -15.55912,-1.5965 -30.84789,-2.87544 -45.81846,-2.90054 0,0 0,0 0,0 -2.754437,0.0251 -5.831632,-0.0573 -9.110709,-0.74284 -0.898193,-0.15929 -2.043815,-0.51809 -3.363608,-1.18655 -2.6e-5,-10e-6 -5.2e-5,-2e-5 -7.8e-5,-3e-5 -0.911032,-0.31679 -1.987945,-1.33594 -3.054408,-3.10433 -0.708819,-1.82172 -0.767267,-3.44544 -0.23654,-4.76296 0.562308,-1.38928 1.180272,-2.33434 1.741105,-2.86156 0,0 0,0 0,0 1.4e-5,-10e-6 2.8e-5,-3e-5 4.2e-5,-4e-5 1.524818,-1.62631 3.05708,-2.71731 4.356948,-3.48503 0,0 0,0 0,0 3.395437,-2.13142 6.866643,-3.76922 10.209383,-5.22681 1.309708,-0.5761 2.625689,-1.13144 3.947214,-1.66608 0.390322,-0.15793 0.784211,-0.31526 1.181934,-0.4712 1.3e-5,0 2.5e-5,-10e-6 3.8e-5,-10e-6 0.348501,-0.0953 0.698843,-0.19119 1.05107,-0.28742 0.083,-0.0226 0.165957,-0.0453 0.248892,-0.0678 0.02146,-0.006 0.04291,-0.0117 0.06436,-0.0175 0.0076,-0.003 0.0076,-0.003 0.0076,-0.003 0.02257,-0.004 0.04521,-0.008 0.06778,-0.012 0.04851,-0.008 0.09702,-0.0161 0.145505,-0.0241 0.187041,-0.031 0.373881,-0.0618 0.560519,-0.0927 0.246653,-0.0145 0.491975,-0.0285 0.73597,-0.0421 0.888641,-0.0494 1.774662,-0.0948 2.657996,-0.13708 0,0 0,0 0,0 1.2e-5,0 2.5e-5,0 3.8e-5,0 0,0 0,0 0,0 2.866071,-0.13732 5.727551,-0.24426 8.583511,-0.31383 0,0 0,0 0,0 1e-5,0 3e-5,0 4e-5,0 0,0 0,0 0,0 3.36978,-0.0828 6.7609,-0.11759 10.16771,-0.0357 0,0 0,0 0,0 2.69746,0.0483 5.63768,0.15207 8.73993,0.70474 0,0 0,0 0,0 0,1e-5 1e-5,1e-5 1e-5,1e-5 0.49233,0.18347 1.55496,-0.0321 3.10025,-0.14536 2.1865,-0.25521 4.42429,-0.68036 6.72235,-1.15019 6.20843,-1.27594 12.34456,-2.88307 18.44775,-4.56199 6.48321,-1.78548 12.86089,-3.67095 19.12733,-5.64591 4.49756,-1.42165 8.8575,-2.78271 12.96351,-4.40381 1.653,-0.56704 3.17869,-2.00849 4.48784,-3.71481 0,0 0,0 0,0 1.45828,-1.94213 2.55702,-4.38383 3.66779,-7.01003 0,0 0,0 0,0 1.10962,-2.68343 2.13165,-5.57531 3.40132,-8.52566 0,0 0,0 0,0 0,-10e-6 10e-6,-2e-5 10e-6,-3e-5 0,0 0,0 0,0 1.06737,-2.60162 2.51656,-5.43779 4.7925,-8.03653 0,0 0,0 0,0 2.31711,-2.46408 5.02699,-4.09861 7.6861,-5.15374 2.72558,-1.12387 5.48171,-1.8491 8.16837,-2.33035 1e-5,0 2e-5,0 3e-5,0 2.20016,-0.40115 4.40017,-0.66226 6.58406,-0.80285 0,0 0,0 0,0 1e-5,0 2e-5,0 3e-5,0 0,0 0,0 0,0 0.67022,-0.0435 1.34865,-0.076 2.03485,-0.0937 0.1884,-0.005 0.38243,-0.009 0.58204,-0.0104 -3e-5,6e-5 -4e-5,7e-5 -5e-5,8e-5 -0.52963,1.0288 -1.05604,2.05736 -1.57925,3.08578 -3e-5,5e-5 -3e-5,5e-5 -3e-5,5e-5 0.0105,10e-4 0.021,0.002 0.0316,0.003 0.004,3.8e-4 0.008,7.6e-4 0.0116,0.001 -3.80378,-4.75498 -7.5219,-9.4483 -11.15081,-14.07726 0,0 0,0 0,0 1.55553,-6.09672 3.07167,-12.0684 4.5472,-17.91098 0,0 0,0 0,0 6.94712,-0.74103 13.72509,-1.44298 20.32721,-2.10485 0,0 0,0 0,0 3.40238,-0.21045 6.76069,-0.41734 10.07394,-0.62061 0,0 0,0 0,0 3.59867,0.0571 7.14183,0.11359 10.62834,0.16958 0,0 0,0 0,0 2.59586,0.68216 4.60471,1.51605 6.09189,1.3352 0.0957,-0.0658 -0.002,0.0366 -0.38793,0.21935 -10e-6,10e-6 -10e-6,2e-5 -2e-5,2e-5 -0.23514,0.25523 -0.28724,0.24402 -0.10374,0.0536 0,0 0,0 0,0 0,0 10e-6,-10e-6 10e-6,-10e-6 0,0 0,0 0,0 0.70833,-1.13728 1.91134,-2.25544 3.63987,-3.06996 0,0 0,0 0,0 3.08949,-1.08341 5.83404,-0.85172 7.92186,-0.50116 0,0 0,0 0,0 3.38007,-0.68925 6.69966,-1.36471 9.95727,-2.02606 0,0 0,0 0,0 4.21072,0.28537 8.318,0.56641 12.31895,0.84291 0,0 0,0 0,0 4.78507,-0.4155 9.42452,-0.81486 13.91235,-1.19755 0,0 0,0 0,0 5.61553,-1.12651 10.98874,-2.19908 16.10725,-3.21511 0,0 0,0 0,0 1e-5,0 2e-5,-10e-6 2e-5,-10e-6 0,0 0,0 0,0 4.96827,-1.92818 9.66647,-3.75152 14.08614,-5.46596 6e-5,0 6e-5,0 6e-5,0 0.0761,-0.003 0.1521,-0.005 0.22734,-0.007 0.21244,-0.006 0.42139,-0.0127 0.6269,-0.0189 0.20791,0.0457 0.40291,0.0954 0.58565,0.14662 0.69216,0.19408 1.34368,0.42935 1.95793,0.68724 0,0 0,0 0,0 2.31946,0.97529 4.34026,2.29484 6.08731,3.75369 0,0 0,0 0,0 4.18731,3.53577 6.92735,7.68844 8.88112,11.68992 1.95377,4.00148 3.11672,7.86293 3.89924,11.24626 0,0 0,0 0,0 0,10e-6 0,10e-6 10e-6,10e-6 0,0 0,0 0,0 0.56198,2.38643 1.0517,4.54081 1.52042,6.453 0.46871,1.9122 0.91411,3.58293 1.32836,5.01517 0,0 0,0 0,0 0.22107,0.73549 0.37427,1.3488 0.61441,1.82715 0,0 0,0 0,0 0.11519,0.1156 0.0572,0.14195 -0.0891,0.0196 0,0 0,0 0,0 -2e-5,0 -3e-5,0 -4e-5,0 0,0 0,0 0,0 -0.48584,0.005 -0.70627,0.0763 -0.72942,0.26604 0,0 0,0 0,0 0.0873,-0.0418 0.0548,-0.30888 0.0931,-0.63676 0,0 0,0 0,0 0.0321,-0.51081 0.0329,-0.9762 0.0383,-1.38231 0,0 0,0 0,0 0.007,-0.55561 0.0157,-0.99402 0.039,-1.31045 0,0 0,0 0,0 0.0137,-0.18577 0.0322,-0.32935 0.0566,-0.43036 0,0 0,0 0,0 0,0 0,0 0,0 0.013,-0.0538 0.0277,-0.0955 0.0441,-0.12507 0,0 0,0 0,0 0.0294,-0.0184 0.0443,-0.0313 0.0518,-0.0397 0.007,-0.008 0.008,-0.0124 0.008,-0.0131 0,0 0,0 0,0 0,0 0,0 0,0 0,-8e-5 0,-6e-5 0,-6e-5 0,0 0,-2e-5 2e-5,6e-5 0,0 0,0 0,0 0,0 0,0 0,0 1.8e-4,6.8e-4 0.002,0.005 0.0111,0.0103 0.01,0.006 0.0277,0.0139 0.0611,0.023 0,0 0,0 0,0 0.0242,0.0237 0.0502,0.0598 0.0778,0.10838 0,0 0,0 0,0 0,0 0,0 0,0 0.0517,0.0908 0.10921,0.22495 0.17138,0.4023 0,0 0,0 0,0 0.10588,0.30199 0.2266,0.72935 0.34861,1.28505 0,0 0,0 0,0 0.0889,0.40354 0.18278,0.87832 0.24591,1.43857 0,0 0,0 0,0 0.055,0.2493 0.12176,0.63636 -0.0515,1.19164 0,0 0,0 0,0 -0.0722,0.30213 -0.4119,0.47369 -1.01199,0.42747 0,0 0,0 0,0 -10e-6,0 -3e-5,0 -5e-5,-10e-6 0,0 0,0 0,0 -0.36194,-0.21933 -0.54267,-0.42846 -0.55357,-0.52379 0,0 0,0 0,0 -0.40542,-0.60156 -0.70384,-1.30573 -0.98532,-1.98303 0,0 0,0 0,0 -0.59517,-1.40547 -1.22329,-3.06031 -1.8713,-4.95286 -0.64801,-1.89254 -1.31363,-4.02364 -2.03842,-6.35542 0,0 0,0 0,0 0,-10e-6 0,-10e-6 0,-10e-6 0,0 0,0 0,0 -1.00859,-3.18406 -2.34856,-6.77426 -4.33324,-10.37933 -1.98468,-3.60506 -4.60961,-7.23619 -8.39181,-10.05321 0,0 0,0 0,0 -1.5574,-1.17526 -3.27558,-2.20455 -5.14072,-2.88806 0,0 0,0 0,0 -0.49512,-0.18187 -0.98363,-0.33797 -1.46479,-0.44954 -0.12718,-0.0295 -0.24441,-0.0546 -0.35172,-0.0728 0.12353,-0.0229 0.25025,-0.045 0.38016,-0.066 0.0461,-0.007 0.0923,-0.0148 0.13914,-0.0218 -4.12703,1.88415 -8.4831,3.87314 -13.05672,5.96261 0,0 0,0 0,0 0,1e-5 -10e-6,1e-5 -10e-6,1e-5 0,0 0,0 0,0 -5.29394,1.24754 -10.88082,2.55759 -16.74992,3.92773 0,0 0,0 0,0 -4.70943,0.53703 -9.59759,1.09043 -14.65905,1.65959 0,0 0,0 0,0 -3.89199,-0.18779 -7.88191,-0.38305 -11.96678,-0.58565 0,0 0,0 0,0 -3.2841,0.74044 -6.63217,1.49377 -10.04273,2.25966 0,0 0,0 0,0 -2.4769,-0.0644 -4.58628,-0.35233 -5.86369,0.28097 -0.002,-0.13416 -0.13348,0.15066 -0.46247,0.57708 -1e-5,10e-6 -1e-5,2e-5 -2e-5,3e-5 -0.22115,0.41961 -0.71499,1.01253 -1.54483,1.69892 -2e-5,2e-5 -4e-5,3e-5 -6e-5,5e-5 -1.14474,0.73273 -2.19133,1.06708 -3.03374,1.0779 0,0 0,0 0,0 -3.13239,0.1964 -5.70978,-0.62954 -7.64753,-1.31214 0,0 0,0 0,0 -3.08567,0.056 -6.2099,0.11251 -9.37166,0.16956 0,0 0,0 0,0 -3.26574,0.26666 -6.57476,0.53602 -9.92606,0.80797 -5.50565,-0.19619 -11.11246,-0.42181 -16.81565,-0.67629 0,0 0,0 0,0 -0.39847,3.99591 -0.78744,8.0261 -1.16708,12.08904 0,0 0,0 0,0 2.45384,5.66492 4.92768,11.45031 7.42055,17.3513 -0.005,4e-4 -0.01,8.1e-4 -0.0143,0.001 -0.013,0.001 -0.026,0.002 -0.039,0.003 -1e-5,0 -1e-5,0 -1e-5,0 -0.61348,1.02915 -1.23015,2.05884 -1.85004,3.089 -1e-5,2e-5 -2e-5,3e-5 -2e-5,4e-5 -0.143,0.003 -0.29165,0.008 -0.446,0.0145 0,0 0,0 0,0 -0.56169,0.0221 -1.13224,0.0577 -1.71153,0.10318 0,0 0,0 0,0 -1e-5,0 -2e-5,0 -3e-5,0 0,0 0,0 0,0 -1.88932,0.14945 -3.77027,0.39779 -5.62568,0.76319 -1e-5,0 -2e-5,0 -3e-5,0 0,0 0,0 0,0 -2.27231,0.45607 -4.45512,1.04442 -6.43716,1.91144 -1.90432,0.87478 -3.60524,1.83577 -4.64252,3.09879 -1.26431,1.33487 -2.17045,3.38454 -3.19855,5.71341 0,0 0,0 0,0 0,10e-6 -10e-6,2e-5 -10e-6,3e-5 -1.0903,2.60252 -2.0587,5.45709 -3.25047,8.43861 -1.12745,2.8833 -2.52715,5.94076 -4.59113,8.88284 -1.95162,2.81528 -4.74322,5.29417 -8.32466,6.82091 -4.48726,1.8162 -9.03627,3.29475 -13.50971,4.74797 -6.35233,2.0689 -12.82077,4.04474 -19.39946,5.91659 -6.16823,1.75708 -12.48678,3.46202 -19.00761,4.85766 0,0 0,0 0,0 -2.39683,0.51551 -4.89249,1.00142 -7.50198,1.33307 -1.44767,0.25299 -3.44692,0.45288 -5.93428,0.0946 -2e-5,0 -4e-5,0 -6e-5,0 -2.14146,-0.40073 -4.57875,-0.43526 -7.25019,-0.50031 -3.18705,-0.0573 -6.42305,-0.002 -9.70562,0.0971 0,0 0,0 0,0 -10e-6,0 -2e-5,0 -4e-5,0 0,0 0,0 0,0 -2.77274,0.0844 -5.5589,0.20507 -8.357917,0.3551 -1.2e-5,0 -2.5e-5,0 -3.7e-5,0 -0.862299,0.0462 -1.723574,0.0952 -2.583715,0.14788 -0.236203,0.0145 -0.471192,0.0292 -0.704949,0.0442 0.06037,-0.0231 0.120926,-0.0461 0.181679,-0.0691 0.01575,-0.006 0.03151,-0.0119 0.04729,-0.0179 0.0109,-0.003 0.02174,-0.007 0.03264,-0.01 1.6e-5,-10e-6 3.3e-5,-10e-6 4.9e-5,-2e-5 9.5e-5,0.002 0.0077,0.002 0.01535,0.001 0.02948,-0.002 0.05902,-0.004 0.08861,-0.006 0.147641,-0.0165 0.293605,-0.032 0.437842,-0.0467 -1.1e-5,10e-6 -2.2e-5,10e-6 -3.4e-5,2e-5 -0.358429,0.14279 -0.719151,0.28922 -1.082467,0.4385 -1.23014,0.50555 -2.454751,1.03013 -3.673116,1.57375 -3.185755,1.434 -6.228067,2.86328 -8.9114,4.5935 0,0 0,0 0,0 -1.086093,0.74801 -1.933412,1.26619 -2.294643,1.75778 -4e-6,10e-6 -7e-6,10e-6 -10e-6,2e-5 -0.077,0.18903 -0.04717,0.0318 0.203121,-0.44947 0.290388,-0.61805 0.211774,-1.44864 -0.178531,-2.60212 -0.67639,-0.95016 -0.984016,-1.39389 -1.097392,-1.2781 -3e-6,0 -6e-6,10e-6 -9e-6,10e-6 -0.03018,0.0309 0.258094,0.0672 0.795518,0.22142 1.984416,0.46406 4.360909,0.45879 7.026006,0.48386 0,0 0,0 0,0 15.50559,-0.0251 31.14149,1.22337 46.82655,2.81031 5.82805,0.58768 11.67989,1.24036 17.55206,1.96071 1.70863,0.20959 3.42144,0.42524 5.13802,0.64956 0.4605,0.0602 0.92259,0.12116 1.38622,0.18336 0.0789,0.0119 0.15826,0.0239 0.23804,0.0361 0.0204,0.003 0.0409,0.006 0.0614,0.009 0.007,0.001 0.0143,0.002 0.0214,0.003 5.52062,0.3768 11.06507,0.75615 16.632,1.13798 3.76013,0.25214 7.52541,0.50586 11.29591,0.74944 5.39493,0.34852 10.76069,0.67351 16.09795,0.94191 7.25384,0.379 14.64125,-0.11843 22.09511,-0.77069 3.84501,-0.39403 7.67759,-0.78633 11.49737,-1.1769 5.07025,-1.91238 10.11688,-3.81498 15.13855,-5.70732 1e-5,0 3e-5,0 4e-5,0 4.86186,-0.24525 9.70233,-0.48891 14.52008,-0.73094 5.86895,1.92808 11.70188,3.84572 17.49658,5.75224 5.08076,0.45037 10.13375,0.89932 15.15786,1.34675 10.43141,0.99223 20.73756,1.97597 30.90756,2.94997 4.0652,-0.40865 8.10795,-0.81513 12.1274,-1.21943 10e-6,10e-6 2e-5,10e-6 4e-5,2e-5 2.89805,1.20237 5.78332,2.39988 8.65548,3.5924 4.51694,0.6484 9.0098,1.27886 13.47843,1.88952 -4.0712,-8.32503 -8.09162,-16.52667 -12.05883,-24.59617 14.08376,7.70876 27.72628,15.25539 40.872,22.62526 6.35642,1.12532 12.62435,2.23862 18.79968,3.33927 8.05152,0.0598 15.9373,0.12142 23.64815,0.18479 5.27263,1.25237 10.46239,2.48643 15.56616,3.70143 0.006,-3.4e-4 0.011,-6.8e-4 0.0165,-0.001 0.0153,-9.4e-4 0.0306,-0.002 0.0458,-0.003 0,0 0,0 0,0 -0.12939,-0.018 -0.25835,-0.0361 -0.38688,-0.0542 0,0 0,0 0,0 0.2264,-0.0141 0.45329,-0.0285 0.68064,-0.0431 0,0 0,0 0,0 0.84886,-0.0545 1.69632,-0.11118 2.54239,-0.16913 0,0 0,0 0,0 2.938,-0.20124 5.84646,-0.41752 8.7247,-0.6471 0,0 0,0 0,0 8.05227,-0.64346 15.82915,-1.35528 23.29658,-2.34628 2.44624,-0.32129 4.90849,-0.79083 7.39784,-1.26938 3.59987,-0.69402 7.14217,-1.43514 10.63107,-2.18115 8.94083,-1.91185 17.46826,-3.85222 25.57316,-5.71353 11.98838,-1.7081 23.03462,-3.43734 33.06084,-5.15287 -21.64059,1.46619 -38.70491,2.2576 -50.36754,2.5323 -11.66263,0.27469 -17.92336,0.0341 -17.93775,-0.42636 z"
           id="path3157"
           inkscape:path-effect="#path-effect3159"
           inkscape:original-d="m 493.57143,841.64789 68.57143,-2.14285 c 0,0 -61.42858,15.71429 -76.42858,17.85715 -15,2.14285 -35.71428,3.57142 -35.71428,3.57142 l -15.71429,-3.57143 -23.57143,0 -20,-3.57143 -38.57143,-25.71428 13.57143,25 -16.42857,1.42857 -8.57143,-3.57143 -11.42857,1.42857 -31.42857,-2.85714 -15.71429,-1.42857 L 265,842.36218 l -12.85714,0.71429 -15.00001,5.71428 c 0,0 -20.71428,2.85715 -35,2.14286 -14.28571,-0.71428 -44.28571,-2.85715 -44.28571,-2.85715 0,0 -41.42857,-5.71427 -70.714283,-5.71427 C 57.857142,842.36219 95,828.07647 95,828.07647 c 0,0 22.14285,-1.42857 29.99999,0 7.85714,1.42857 52.14286,-12.14286 62.85715,-16.42857 10.71428,-4.28572 11.42857,-21.42858 17.85714,-28.57143 6.42858,-7.14286 22.14286,-7.14286 22.14286,-7.14286 l -9.28571,-15.71428 2.85714,-15.00001 18.57143,-0.71428 10,-0.71429 10,10e-6 c 14.52551,4.37265 3.29063,-3.4671 17.85714,-2.14286 l 10,-2.14286 12.14286,0.71428 14.28571,-1.42857 16.42858,-3.57142 13.57142,-5.7143 c 0,0 14.28572,2.14286 20.71429,25.71429 6.42857,23.57143 4.28571,9.28572 4.28571,9.28572"
           inkscape:connector-curvature="0"
           sodipodi:nodetypes="cssscscsccccccccccccccscccccccccccccsc" />
      </g>
      <path
         sodipodi:nodetypes="ccssscccssssc"
         inkscape:connector-curvature="0"
         inkscape:original-d="m 355.71429,738.07647 -25,-34.28572 c 0,0 -8.57143,-20.71428 -21.42858,-27.85714 C 296.42857,668.79075 280,662.36218 268.57143,658.07647 c -11.42857,-4.28572 -57.85714,-27.14286 -72.85714,-30.71429 -15,-3.57143 -67.85715,-28.57143 -67.85715,-28.57143 l -31.428568,4.28572 -15.714286,12.85714 c 0,0 -31.428572,22.85714 -2.142857,17.14286 C 107.85714,627.36218 107.14286,616.6479 120,628.79075 c 12.85714,12.14286 30.71429,10.71429 47.14286,32.85715 16.42857,22.14285 25,29.28571 30,46.42857 5,17.14286 23.57143,51.42857 23.57143,51.42857"
         inkscape:path-effect="#path-effect3168"
         id="path3166"
         d="m 355.71429,738.07647 c -0.77198,0.5629 -10.64456,-11.46271 -27.20768,-32.91282 -2e-5,-4e-5 -2e-5,-4e-5 -2e-5,-4e-5 -1.96562,-3.50287 -4.04858,-7.23457 -6.24255,-11.18349 0,0 0,0 0,0 -1.92503,-2.94027 -4.07728,-5.86815 -6.60014,-8.56936 0,0 0,0 0,0 -2.38705,-2.54362 -5.01157,-4.9241 -8.0378,-6.48985 0,0 0,0 0,0 -5.82139,-3.09762 -12.14945,-6.00993 -18.92644,-8.80596 -6.77699,-2.79603 -14.00336,-5.47519 -21.56342,-8.2113 0,0 0,0 0,0 -2.07711,-0.75394 -4.07557,-1.5916 -6.02339,-2.41522 0,0 0,0 0,0 0,0 -10e-6,0 -10e-6,0 0,0 0,0 0,0 -2.78585,-1.1759 -5.58096,-2.39648 -8.3939,-3.63295 0,0 0,0 0,0 -6.84998,-3.01079 -13.8677,-6.15222 -21.07355,-9.31418 0,0 0,0 0,0 -7.0218,-3.08075 -14.20111,-6.20062 -21.58932,-9.15887 0,0 0,0 0,0 -2.97261,-1.18981 -5.95435,-2.34686 -8.96425,-3.40125 0,0 0,0 0,0 -2.24039,-0.77888 -4.38927,-1.50445 -6.48176,-1.98124 0,0 0,0 0,0 -2.74089,-0.64668 -5.30371,-1.50456 -7.72748,-2.36133 0,0 0,0 0,0 -3.33583,-1.16987 -6.63258,-2.43811 -9.90703,-3.74177 0,0 0,0 0,0 -1e-5,0 -2e-5,-10e-6 -2e-5,-10e-6 0,0 0,0 0,0 -7.57536,-3.01499 -15.16761,-6.27271 -22.80579,-9.63835 0,0 0,0 0,0 -6.5854,-2.90133 -13.21971,-5.89876 -19.89773,-8.97537 0,0 0,0 0,0 -2.06904,-0.9532 -4.14361,-1.91473 -6.22273,-2.88596 0,0 0,0 0,0 -0.57134,-0.26689 -1.14369,-0.53482 -1.71691,-0.80408 0,-10e-6 0,-10e-6 -1e-5,-10e-6 -0.15022,-0.0706 -0.30085,-0.14138 -0.45187,-0.2125 0,0 1e-5,0 1e-5,0 0.42919,0.0539 0.85822,0.1076 1.28707,0.16125 -0.009,-0.005 -0.0178,-0.009 -0.0267,-0.0142 -0.003,-0.002 -0.006,-0.003 -0.009,-0.005 -4.10906,0.56882 -8.24161,1.13923 -12.39678,1.71103 -5.50281,0.75725 -10.96649,1.5061 -16.388953,2.24632 -4.888684,4.15085 -9.734976,8.2599 -14.535789,12.32347 0,0 0,0 0,0 -1.492181,1.16132 -2.98001,2.31884 -4.463357,3.47246 0,0 0,0 0,0 -2.616785,2.17118 -5.036544,4.25987 -6.928579,6.53446 -0.767918,1.00301 -1.368472,1.67071 -1.473781,2.12572 0.01139,0.13127 -0.01185,-0.0403 0.03274,-0.53828 0,-10e-6 -10e-7,-2e-5 -10e-7,-3e-5 -0.01794,-0.60971 -0.265158,-1.18076 -0.750503,-1.80937 -8e-6,-10e-6 -1.7e-5,-2e-5 -2.5e-5,-3e-5 -0.591885,-0.48882 -0.817918,-0.71493 -0.814696,-0.6104 10e-7,0 2e-6,0 3e-6,0 0.0886,0.0698 0.453481,0.0776 1.040873,0.13562 5e-6,0 1.1e-5,0 1.6e-5,1e-5 0,0 0,0 0,0 2.113475,0.13514 4.526648,-0.30865 7.192828,-0.7826 0,0 0,0 0,0 5.636001,-1.07483 11.092067,-2.54162 16.258816,-4.47578 0,0 0,0 0,0 3.090452,-1.14962 6.325363,-2.6983 9.924963,-4.00748 10e-6,0 2e-5,0 3e-5,0 1.28997,-0.48921 2.81226,-0.92961 4.56633,-1.16259 0,0 0,0 0,0 1e-5,0 2e-5,0 3e-5,0 1.66814,-0.20194 3.38703,-0.0772 5.07054,0.3888 4.43422,1.47176 7.47372,4.09719 9.66499,6.40144 0,0 0,0 0,0 2.65191,2.58566 5.92281,4.65641 9.38327,6.49562 3.68104,1.93935 7.64454,3.63692 11.60346,5.59821 0,0 0,0 0,0 4.58759,2.26331 9.0205,4.86836 13.05805,7.98081 0,0 0,0 0,0 5.21618,4.04879 9.56247,8.77426 13.14355,13.74101 0,10e-6 0,10e-6 1e-5,2e-5 3.23173,4.48328 6.55098,8.77244 9.75987,12.97973 3.2089,4.2073 6.30767,8.3325 9.15998,12.44263 0,0 0,0 0,0 5.10124,7.3347 8.73283,15.0274 10.75674,22.53086 1.4336,5.42679 3.41527,10.42499 5.27222,15.07779 0,0 0,0 0,0 2.59948,6.50003 5.0956,12.18316 7.23624,17.04393 0,0 0,0 0,0 2.6202,5.94923 4.72781,10.65031 6.15251,14.01496 0,0 0,0 0,0 0.79222,1.87093 1.37502,3.32715 1.72844,4.35087 0,0 0,0 0,0 0.18447,0.53433 0.3064,0.95061 0.36332,1.2463 0,0 0,0 0,0 0,0 0,0 0,0 0.029,0.15068 0.0411,0.27002 0.0359,0.35767 0,0 0,0 0,0 -0.0436,0.0665 -0.0614,0.10854 -0.0682,0.13408 0,0 0,0 0,0 -0.007,0.0253 -0.003,0.0345 -0.002,0.0351 0,0 0,0 0,0 0,0 0,0 0,0 1e-5,3e-5 1e-5,2e-5 1e-5,2e-5 0,0 0,10e-6 -1e-5,-2e-5 0,0 0,0 0,0 0,0 0,0 0,0 -3.7e-4,-6.2e-4 -0.006,-0.009 -0.0307,-0.0173 0,0 0,0 0,0 -0.0251,-0.008 -0.07,-0.0164 -0.14948,-0.0164 0,0 0,0 0,0 -0.0761,-0.0439 -0.16934,-0.11994 -0.27926,-0.22765 0,0 0,0 0,0 0,0 0,0 0,0 -0.2155,-0.21109 -0.49529,-0.5441 -0.83663,-0.99625 0,0 0,0 0,0 -0.65398,-0.86628 -1.53448,-2.17052 -2.62057,-3.89508 0,0 0,0 0,0 -1.95316,-3.10131 -4.57889,-7.56083 -7.70861,-13.30715 0,0 0,0 0,0 -2.55616,-4.69271 -5.46611,-10.24337 -8.49312,-16.69301 -2.15394,-4.57849 -4.46635,-9.64658 -6.30633,-15.44349 0,0 0,0 0,0 -2.11717,-6.69453 -5.73312,-13.53804 -10.67184,-20.14771 -2.89303,-3.86952 -6.05927,-7.80003 -9.38304,-11.88667 -3.32376,-4.08663 -6.80535,-8.32925 -10.26851,-12.86951 0,0 0,-10e-6 -1e-5,-10e-6 -3.33372,-4.3532 -7.25888,-8.42812 -11.83413,-11.79471 0,0 0,0 0,0 -3.511,-2.60432 -7.50885,-4.81783 -11.78571,-6.84062 0,0 0,0 0,0 -3.71707,-1.75018 -7.75928,-3.39611 -11.901,-5.47322 -3.98425,-1.98315 -7.97751,-4.47208 -11.57655,-7.7901 0,0 0,0 0,0 -2.35865,-1.9929 -4.18775,-3.86963 -5.89304,-4.11195 -0.4212,-0.12157 -0.93062,-0.13789 -1.44449,-0.0716 -1e-5,0 -1e-5,0 -1e-5,0 -0.65108,0.0627 -1.46892,0.35002 -2.46767,0.70403 0,0 0,0 0,0 -1e-5,10e-6 -1e-5,10e-6 -2e-5,10e-6 -3.00605,1.12449 -6.17648,2.69541 -9.784853,4.09521 0,0 0,0 0,0 -5.713688,2.20668 -11.681109,3.88494 -17.78136,5.10011 0,0 0,0 0,0 -2.785249,0.58975 -5.934213,1.11524 -9.434423,1.02564 0,0 0,0 0,0 -9e-6,0 -1.9e-5,0 -2.8e-5,0 0,0 0,0 0,0 -1.00629,-0.006 -2.249039,-0.16437 -3.68136,-0.59126 -1.4e-5,0 -2.7e-5,-1e-5 -4.1e-5,-1e-5 -1.000907,-0.22341 -2.21245,-0.93941 -3.502283,-2.22401 -1.8e-5,-2e-5 -3.7e-5,-4e-5 -5.5e-5,-7e-5 -1.050745,-1.27328 -1.613256,-2.69154 -1.672928,-4.15913 -2e-6,-3e-5 -3e-6,-5e-5 -4e-6,-8e-5 -0.0042,-1.50001 0.231405,-2.66785 0.605806,-3.47387 0,0 0,0 0,0 0.904283,-2.15173 2.042667,-3.75093 3.080536,-4.90085 2.578867,-3.05578 5.448737,-5.61497 8.263885,-7.92683 1.482506,-1.16582 2.969921,-2.33508 4.462099,-3.50767 1.7e-5,-10e-6 1.7e-5,-10e-6 1.7e-5,-10e-6 5.56784,-4.41987 11.201962,-8.88571 16.892789,-13.39082 6.412543,-0.87365 12.880733,-1.75187 19.395843,-2.63343 4.91957,-0.66566 9.81268,-1.32604 14.67557,-1.98065 0.004,0.002 0.008,0.003 0.0113,0.005 0.0107,0.005 0.0214,0.009 0.0321,0.0136 0.50553,0.0899 1.01122,0.17981 1.51709,0.26984 1e-5,0 1e-5,0 1e-5,0 0.14732,0.0697 0.29504,0.13942 0.44316,0.20931 0,0 1e-5,0 1e-5,0 0.56519,0.26666 1.13097,0.53276 1.6972,0.79859 0,0 0,0 0,0 2.06044,0.96732 4.11806,1.9268 6.17185,2.8798 0,0 0,0 0,0 6.62988,3.07635 13.20518,6.07945 19.72198,8.99253 0,0 0,0 0,0 7.5698,3.38324 15.03231,6.64817 22.42602,9.66309 1e-5,0 1e-5,10e-6 2e-5,10e-6 0,0 0,0 0,0 3.1992,1.30409 6.35957,2.55487 9.50262,3.69092 0,0 0,0 0,0 2.35563,0.84429 4.57458,1.62815 6.71235,2.14306 2.67064,0.65729 5.13906,1.50721 7.45519,2.35748 3.19157,1.16293 6.28629,2.40774 9.30862,3.66628 7.51774,3.12938 14.74065,6.39882 21.73657,9.61345 0,0 0,0 0,0 7.19688,3.30633 14.15709,6.58348 20.91306,9.726 0,0 0,0 0,0 2.77682,1.29152 5.50758,2.55702 8.20487,3.7694 0,0 0,0 0,0 1e-5,0 1e-5,10e-6 2e-5,10e-6 0,0 0,0 0,0 1.92418,0.8629 3.76665,1.6911 5.56977,2.39225 0,0 0,0 0,0 7.53851,2.92585 14.81559,5.85427 21.67916,8.93734 6.86357,3.08306 13.31389,6.32005 19.25954,9.75968 0,0 0,0 0,0 3.89847,2.28131 6.96764,5.23003 9.4952,8.22915 0,0 0,0 0,0 2.74903,3.24449 4.9953,6.60629 6.92157,9.89884 0,0 0,0 0,0 1.96472,3.98867 3.82007,7.77394 5.55986,11.3435 0,0 0,0 0,0 15.14998,22.04217 23.56432,35.09577 22.79234,35.65867 z"
         style="fill:#000000;fill-rule:evenodd;stroke:none" />
    </g>
  </g>
</svg>
